# xmcd
#
# Track frame offsets: 
#        150
#        18573
#        39027
#        56600
#        69547
#        89178
#        105269
#        122416
#        138896
#        152997
#        174157
#        190075
#        205113
#
# Disc length: 2884 seconds
#
# Revision: 0
# Processed by: cddbd v1.5.2PL0 Copyright (c) Steve Scherf et al.
# Submitted via: ExactAudioCopy v0.99pb5
#
DISCID=a30b420d
DTITLE=Honey Island Swamp Band - Wishing Well
DYEAR=2009
DGENRE=Blues
TTITLE0=Wishing Well
TTITLE1=Natural Born Fool
TTITLE2=Dark End of the Bar
TTITLE3=Killing Me
TTITLE4=Expression of Love
TTITLE5=Seeds and Stems
TTITLE6=Till the Money's Gone
TTITLE7=I Can Tell
TTITLE8=Bluebonnet Road
TTITLE9=Sophisticated Mama
TTITLE10=Decent Company
TTITLE11=You Don't Miss Your Water
TTITLE12=Ask Me If I Care
EXTD=
EXTT0=
EXTT1=
EXTT2=
EXTT3=
EXTT4=
EXTT5=
EXTT6=
EXTT7=
EXTT8=
EXTT9=
EXTT10=
EXTT11=
EXTT12=
PLAYORDER=
